# xmcd
#
# Track frame offsets:
#	150
#	16769
#	30651
#	47351
#	63696
#	76783
#	90408
#	106590
#	125210
#	147762
#	170078
#	194300
#	210638
#	223940
#	241388
#	264829
#	294977
#	318130
#
# Disc length: 4478 seconds
#
# Revision: 1
# Processed by: cddbd v1.5.2PL0 Copyright (c) Steve Scherf et al.
# Submitted via: EZCDAudioConverter 7.0.0.1
#
DISCID=f3117c12
DTITLE=Various Artist - Black and White Blues
DYEAR=2008
DGENRE=Blues
TTITLE0=John Lurie - Chaucer Street
TTITLE1=John Lee Hooker and Miles Davis - Coming To Town (Hot Spot Soundtrack Ve
TTITLE1=rsion)
TTITLE2=Robert Cray - Who's Been Talking
TTITLE3=John Hammond - Evil Is Going On
TTITLE4=Bo Diddley - I'm A Man
TTITLE5=Alexis Korner and His Blues Incorported Feat. Cyril Davies - Hoochie Coo
TTITLE5=chie Man
TTITLE6=Boy White, Whillie Jones And Joe Lee - Joe Lee's Rock
TTITLE7=John Campell - Love's Name
TTITLE8=Cowboy Junkies - Baby Please Dont't Go
TTITLE9=Stevie Ray Vaughan - Dirty Pool
TTITLE10=Cold Blood - Let Me Down Easy
TTITLE11=Tim Dardin - House Of The Rising Sun
TTITLE12=Tim Rose - Hey Joe (You Shot Your Woman Down)
TTITLE13=Nick Cave and The Bad Seed Feat. Pj Harvey - Henry Lee
TTITLE14=David Ackles - The Road To Cairo
TTITLE15=Tim Buckley - Seet Surrender
TTITLE16=Jeff Buckley - Forget Her
TTITLE17=Radiohead - Creep
EXTD=
EXTT0=
EXTT1=
EXTT2=
EXTT3=
EXTT4=
EXTT5=
EXTT6=
EXTT7=
EXTT8=
EXTT9=
EXTT10=
EXTT11=
EXTT12=
EXTT13=
EXTT14=
EXTT15=
EXTT16=
EXTT17=
PLAYORDER=
